Coordinates
version=1
nRows=17
nColumns=24
inDegrees=yes

Units are S.I. units (second, meters, Newtons, ...)
Angles are in degrees.

endheader
time	pelvis_tilt	pelvis_list	pelvis_rotation	pelvis_tx	pelvis_ty	pelvis_tz	hip_flexion_r	hip_adduction_r	hip_rotation_r	knee_angle_r	ankle_angle_r	subtalar_angle_r	mtp_angle_r	hip_flexion_l	hip_adduction_l	hip_rotation_l	knee_angle_l	ankle_angle_l	subtalar_angle_l	mtp_angle_l	lumbar_extension	lumbar_bending	lumbar_rotation
      1.35466667	     -4.33457649	     -7.51559956	    -11.65944517	      0.84942870	      0.96685544	      0.36632197	    -15.02301060	      8.04765034	      1.88659230	     -8.11153474	     12.81936755	     -2.38296948	      0.71221202	     34.80720963	    -14.19412305	    -12.50741277	     -0.12011637	      6.81215599	     -7.88305699	    -15.30438388	     -5.70979957	      8.66802917	      9.02172757
      1.35883333	     -4.32614749	     -7.49518661	    -11.93189896	      0.85540082	      0.96592457	      0.36659329	    -15.31261775	      7.85281755	      2.04732050	     -8.28389539	     12.77025620	     -2.22732586	      0.77762342	     34.76694352	    -14.33370652	    -12.29175431	     -0.66460386	      7.06015300	     -7.96734872	    -15.30050120	     -5.72830691	      8.56145873	      9.11931716
      1.36300000	     -4.33028397	     -7.46636266	    -12.19324477	      0.86148687	      0.96499644	      0.36681425	    -15.59168163	      7.64709633	      2.17312035	     -8.44640329	     12.66688442	     -2.07551244	      0.81987116	     34.73262292	    -14.45279173	    -12.11961620	     -1.22867621	      7.27269490	     -8.06894324	    -15.29721062	     -5.69315331	      8.45462585	      9.22933333
      1.36716667	     -4.27963531	     -7.40257415	    -12.56682842	      0.86757377	      0.96427373	      0.36728451	    -15.90523659	      7.36562640	      2.42431635	     -8.64461963	     12.58028922	     -1.89568714	      1.11619768	     34.57675271	    -14.60784897	    -12.17872691	     -1.78815572	      7.50184713	     -7.94673604	    -15.29078530	     -5.75285086	      8.26012839	      9.76682367
      1.37133333	     -4.28750041	     -7.38472193	    -12.81770620	      0.87373285	      0.96339161	      0.36739149	    -16.15900039	      7.15922373	      2.52830391	     -8.84508547	     12.42283450	     -1.73950179	      1.16419143	     34.50852396	    -14.71157610	    -12.00006002	     -2.34010300	      7.67565147	     -8.04234667	    -15.28575860	     -5.72558073	      8.17860264	      9.81112600
      1.37550000	     -4.23498891	     -7.32412463	    -13.13750504	      0.87992263	      0.96269632	      0.36762172	    -16.44238587	      6.86964581	      2.65964611	     -9.09239562	     12.28607592	     -1.49883162	      1.48714812	     34.32632942	    -14.80972245	    -12.02096204	     -2.87479075	      7.83708813	     -7.95257541	    -15.26068916	     -5.78314321	      8.00877524	     10.22319105
      1.37966667	     -4.25338822	     -7.30547586	    -13.37849578	      0.88622419	      0.96186849	      0.36765636	    -16.68034531	      6.65535808	      2.76777288	     -9.29461721	     12.06658826	     -1.32303845	      1.54682592	     34.22876043	    -14.89060717	    -11.87542628	     -3.39633512	      7.94107882	     -8.03846133	    -15.25310879	     -5.72238719	      7.93809124	     10.26101076
      1.38383333	     -4.15828687	     -7.19049204	    -13.72766137	      0.89260155	      0.96135979	      0.36795049	    -16.99326272	      6.28171925	      2.92620838	     -9.54152495	     11.87203177	     -1.08807197	      2.12102856	     33.92281478	    -14.93362904	    -12.04595074	     -3.84855028	      8.01224725	     -7.95948935	    -15.18695004	     -5.78751529	      7.68526890	     10.68545534
      1.38800000	     -4.14903511	     -7.17020204	    -13.96129816	      0.89895567	      0.96065324	      0.36789764	    -17.21452966	      6.04349929	      2.96079916	     -9.80561186	     11.54980180	     -0.91668660	      8.19288200	     33.77356636	    -14.99425490	    -12.01582280	     -4.35547913	      8.02626126	     -7.93017924	    -14.28447264	     -5.77763583	      7.61267908	     10.76999324
      1.39216667	     -4.15843394	     -7.09794575	    -14.19620020	      0.90539670	      0.95997812	      0.36781397	    -17.38678921	      5.75027688	      2.97152132	    -10.11175333	     11.28436814	     -0.62547452	      8.22485087	     33.59848766	    -14.99012184	    -11.98423259	     -4.77950282	      7.93601764	     -8.05142034	    -14.27215808	     -5.71654639	      7.47813029	     10.98223185
      1.39633333	     -4.13680925	     -7.01293629	    -14.44388572	      0.91188783	      0.95941288	      0.36775459	    -17.57210467	      5.43010799	      2.99708762	    -10.44280603	     10.98348503	     -0.34964960	      8.30007216	     33.37351748	    -14.97603275	    -12.05093945	     -5.18080450	      7.79979250	     -8.10056198	    -14.24144467	     -5.68644238	      7.31877892	     11.15590829
      1.40050000	     -4.08508617	     -6.92032131	    -14.69562029	      0.91840084	      0.95897113	      0.36769755	    -17.76670532	      5.09058235	      3.02784994	    -10.79959385	     10.63209704	     -0.09684639	      8.45270946	     33.08911249	    -14.94558951	    -12.16604432	     -5.53783795	      7.63926071	     -8.15479272	    -14.17340753	     -5.68996446	      7.14134720	     11.34254257
      1.40466667	     -4.12722591	     -6.88261971	    -14.86944155	      0.92492169	      0.95837508	      0.36748397	    -17.86727550	      4.85695504	      3.02365927	    -11.16425276	     10.19017547	      0.08009312	      8.48931351	     32.96271191	    -14.93939472	    -12.20351047	     -5.94637483	      7.38078924	     -8.21148804	    -14.15984289	     -5.58316789	      7.07775409	     11.36687241
      1.40883333	     -4.09026432	     -6.68607085	    -15.12634228	      0.93156684	      0.95803991	      0.36741501	    -17.96221729	      4.40510459	      2.98312652	    -11.62556237	      9.85974098	      0.41606801	      8.67265637	     32.65350146	    -14.80050323	    -12.42647924	     -6.19265498	      6.97341912	     -8.38495434	    -14.08028317	     -5.52576400	      6.77600972	     11.59969299
      1.41300000	     -4.02475960	     -6.53113601	    -15.33153096	      0.93820011	      0.95780466	      0.36725317	    -18.08690743	      4.00400796	      2.94054992	    -12.08029405	      9.38959367	      0.66921320	      8.90197672	     32.33583613	    -14.66661298	    -12.61936229	     -6.44814881	      6.50785215	     -8.55400582	    -13.97937223	     -5.51039853	      6.52714278	     11.73671786
      1.41716667	     -3.88193580	     -6.39144530	    -15.53412452	      0.94479598	      0.95777112	      0.36711165	    -18.26816280	      3.59607559	      2.89303826	    -12.55688907	      8.85019753	      0.88149106	     14.67789048	     31.93890050	    -14.54259162	    -12.92741268	     -6.69616080	      5.96314576	     -8.62813064	    -11.10290415	     -5.59962842	      6.26939063	     11.92923063
      1.42133333	     -3.92005391	     -6.22755753	    -15.67069988	      0.95142536	      0.95746355	      0.36678576	    -18.21176502	      3.23790111	      2.78500533	    -13.12939152	      8.30052874	      1.05752509	     14.71626871	     31.77933448	    -14.37536924	    -13.04814548	     -6.94931572	      5.32380905	     -8.93650473	    -11.08050040	     -5.45618148	      6.05033644	     11.93891745
